<svg xmlns="http://www.w3.org/2000/svg" width="74.796" height="77.47" viewBox="0 0 74.796 77.47">
  <g id="Grupo_660" data-name="Grupo 660" transform="translate(-74.231 -10)">
    <g id="Grupo_1" data-name="Grupo 1" transform="translate(74.231 60.326)">
      <path id="Trazado_1" data-name="Trazado 1" d="M75.44,49.013q.762,0,1.155,3.97a111.094,111.094,0,0,0,4.252,17.824h.169q.816-11.911.816-18.781v-.281c0-.6-.057-.9-.169-.9.187-.637.516-.957.986-.957q.873,0,.872,1.746v.647q-.562,22.866-1.6,22.866l-.451.2q-.789,0-1.69-2.844A69.456,69.456,0,0,1,76.51,61.036q-.478-2.73-.7-2.73v.168l.083,6.308V75.454q0,.7-.816.7-.9,0-.9-1.379v-.9q0-1.492.029-8.9l-.085-7.208q0-8.7.788-8.7Z" transform="translate(-74.117 -49.013)" fill="#fff"/>
      <path id="Trazado_2" data-name="Trazado 2" d="M88.239,61.735q.9,0,.9,1.971,0,2.254.31,5.463.9.395.9.957v.113q0,.705-.957.872c-.413,0-.771-.393-1.07-1.182a2.948,2.948,0,0,1-5.519-.957q-.254-2.7-.253-5.744v-.535q0-.986.9-.986.646,0,.788,1.07v.451q-.564,6.7,1.775,6.392a3.309,3.309,0,0,0,1.6-2.732V66.1l-.337-2.562v-.283Q87.282,61.737,88.239,61.735Z" transform="translate(-71.57 -45.179)" fill="#fff"/>
      <path id="Trazado_3" data-name="Trazado 3" d="M92.04,50.116q.9,0,.8,5.42t-.1,7.673H92.8l1.689-.253q.816.113.818.816,0,.957-1.775.957l-.732.254.253,9.433q-.111.957-.872.957-.9,0-.9-1.323V71.826l-.056-6.28-.113-.281-1.24.085a.85.85,0,0,1-.788-.872q0-.873,1.943-.874v-.112q0-3.605.113-12.588Q91.139,50.2,92.04,50.116Z" transform="translate(-69.659 -48.68)" fill="#fff"/>
      <path id="Trazado_4" data-name="Trazado 4" d="M95.348,60.28q.76,0,1.154,1.831h.085a3.038,3.038,0,0,1,2.31-1.267q2.027.367,2.027,1.267-.254.789-.874.789l-1.07-.339H98.7q-1.662.311-1.661,6.843v1.323c-.112.582-.376.874-.788.874q-.9,0-.9-1.07V67.264a19.941,19.941,0,0,0-.9-6.307A.885.885,0,0,1,95.348,60.28Z" transform="translate(-68.062 -45.61)" fill="#fff"/>
      <path id="Trazado_5" data-name="Trazado 5" d="M102.025,61.79q.957.141.535,2.844a43.911,43.911,0,0,0-.112,7.462q-.424.816-1.1.7-.789-.113-.647-2.788a44.709,44.709,0,0,1,.478-7.829C101.218,61.9,101.5,61.772,102.025,61.79Zm-.2-3.8q.732,0,.9.957c0,.3-.207.591-.62.874h-.281q-.789,0-.789-.958Q101.264,57.989,101.828,57.988Z" transform="translate(-66.199 -46.303)" fill="#fff"/>
      <path id="Trazado_6" data-name="Trazado 6" d="M108.116,54.29q.816,0,.816.986v4.166a1.1,1.1,0,0,1-.647.9h-.422a1.453,1.453,0,0,0-.818-.367h-.337c-.263,0-.506.358-.733,1.07v.283l.367.309h.085a4.9,4.9,0,0,0,2.112-.506q.73,0,.9.986a9.438,9.438,0,0,1-2.31,1.831l-.7.9v.479h.366a17.485,17.485,0,0,0,2.928-1.1h.056a.9.9,0,0,1,.732.9,12.985,12.985,0,0,0-1.858,5.942,1.223,1.223,0,0,1-.788.45.956.956,0,0,1-.818-1.014,19.244,19.244,0,0,1,.7-3.6l-1.126.056q-1.662,0-1.887-1.943a5.247,5.247,0,0,1,.816-1.859,2.272,2.272,0,0,1-1.267-2.112q0-1.857,2.224-2.674l.7-.085V55.36Q107.215,54.29,108.116,54.29Z" transform="translate(-65.131 -47.419)" fill="#fff"/>
      <path id="Trazado_7" data-name="Trazado 7" d="M111.986,49.813c.281.018.544.254.789.7a2.59,2.59,0,0,0-.254,1.126l-.029.366.169,11.094q-.141,7.546.169,11.066l.056.225a.8.8,0,0,1-.816.508q-1.268-.086-1.014-3.492-.168-1.859-.168-17.093a10.76,10.76,0,0,1-.085-2.449v-.113Q110.944,49.758,111.986,49.813Z" transform="translate(-63.19 -48.772)" fill="#fff"/>
      <path id="Trazado_8" data-name="Trazado 8" d="M117.482,61.513q2.422.873,2.562,5.35v.169q-.113,3.746-1.943,4.59l-.789.113Q114.3,71,114.3,67.2v-.085q0-4.111,2.647-5.491Zm-1.521,5.35v.62q.311,2.648,1.634,2.647a5.058,5.058,0,0,0,.76-3.267v-.168q-.143-3.014-.958-3.3Q115.962,64.048,115.961,66.863Z" transform="translate(-62.147 -45.238)" fill="#fff"/>
      <path id="Trazado_9" data-name="Trazado 9" d="M120.363,60.67q.789,0,1.155,2.59a20.633,20.633,0,0,0,1.971,4.252h.085q.787-6.841,1.943-6.842h.113q.76.311.759.9-.7,1.379-1.577,9.489c-.393.357-.667.535-.816.535q-.676,0-1.914-3.294a19.58,19.58,0,0,1-2.591-6.815Q119.491,61.008,120.363,60.67Z" transform="translate(-60.633 -45.493)" fill="#fff"/>
      <path id="Trazado_10" data-name="Trazado 10" d="M128.362,61.254q1.576,0,2.14,2.844-.732,3.183-3.013,3.182h-.113v.085q.451,2.562,2.394,2.562,1.49,0,2.42-2.562l.62-.254c.413,0,.676.32.789.957q0,1.748-2.732,3.3l-1.351.253q-2.422,0-3.633-3.463a9.968,9.968,0,0,1-.339-2.28v-.367a4.392,4.392,0,0,1,2.394-4.166ZM127.321,64.8v.056l.62.647q.422,0,.788-1.154V63.9q-.141-.873-.366-.874h-.169Q127.771,63.027,127.321,64.8Z" transform="translate(-58.804 -45.316)" fill="#fff"/>
    </g>
    <g id="Grupo_4" data-name="Grupo 4" transform="translate(85.023 10)">
      <path id="Trazado_29" data-name="Trazado 29" d="M134.07,21.5c.029.491.569,11.786-6.084,18.93a23.979,23.979,0,0,1,5.716,4.455,1.518,1.518,0,0,1,0,2.018c-.237.267-5.983,6.582-13.292,6.582a14.537,14.537,0,0,1-5.306-1.06,22.935,22.935,0,0,1-5.846,8.867,1.5,1.5,0,0,1-2.018,0,22.931,22.931,0,0,1-5.847-8.867,14.53,14.53,0,0,1-5.3,1.06c-7.311,0-13.055-6.315-13.293-6.582a1.518,1.518,0,0,1,0-2.018,23.97,23.97,0,0,1,5.717-4.455C81.857,33.285,82.4,21.99,82.427,21.5a1.512,1.512,0,0,1,1.427-1.427,32.48,32.48,0,0,1,7.583.656,32.362,32.362,0,0,1,2.293-7.252A1.517,1.517,0,0,1,95.6,12.7a33.333,33.333,0,0,1,6.74,3.518,32.245,32.245,0,0,1,4.9-5.832,1.518,1.518,0,0,1,2.018,0,32.362,32.362,0,0,1,4.9,5.832A33.342,33.342,0,0,1,120.9,12.7a1.513,1.513,0,0,1,1.867.779,32.207,32.207,0,0,1,2.293,7.252,32.48,32.48,0,0,1,7.583-.656A1.513,1.513,0,0,1,134.07,21.5Zm-8.658,17.244c4.823-4.823,5.55-12.493,5.638-15.65-2.595.072-8.233.583-12.831,3.424a16.746,16.746,0,0,1,.137,2.183c0,6.632-3.791,12.334-6.48,15.55C115.6,43.89,121.469,42.686,125.411,38.743Zm5,7.151a21.077,21.077,0,0,0-4.845-3.3c-4.4,3.28-9.839,4.354-13.459,4.686a14.521,14.521,0,0,0,8.3,3.18C124.785,50.457,128.642,47.5,130.415,45.894Zm-8.3-24.415a32.72,32.72,0,0,0-1.529-5.379,31.324,31.324,0,0,0-4.88,2.725,23.981,23.981,0,0,1,1.859,4.564A24.527,24.527,0,0,1,122.117,21.478Zm-6.79,7.222a14.634,14.634,0,0,0-.232-2.6v-.008c-.995-5.695-4.959-10.445-6.847-12.442-2.17,2.3-7.079,8.253-7.079,15.051s4.909,12.752,7.079,15.053C110.418,41.453,115.327,35.5,115.327,28.7ZM108.248,58a19.058,19.058,0,0,0,4.1-6.927,24.242,24.242,0,0,1-4.1-3.057,24.316,24.316,0,0,1-4.1,3.057A18.816,18.816,0,0,0,108.248,58Zm-6.459-9.083a19.019,19.019,0,0,0,2.6-1.635c-3.612-.34-9.054-1.406-13.467-4.694a20.768,20.768,0,0,0-4.843,3.294c1.78,1.608,5.651,4.571,10.006,4.571A12.365,12.365,0,0,0,101.638,49,1.524,1.524,0,0,1,101.789,48.921Zm2.84-4.67c-2.7-3.208-6.488-8.917-6.488-15.55a16.749,16.749,0,0,1,.138-2.183c-4.606-2.847-10.236-3.359-12.831-3.424.094,3.157.828,10.842,5.636,15.65C95.042,42.693,100.9,43.9,104.629,44.251Zm-5.7-20.862a24.154,24.154,0,0,1,1.859-4.564,31.266,31.266,0,0,0-4.88-2.725,32.848,32.848,0,0,0-1.529,5.379A24.489,24.489,0,0,1,98.927,23.388Z" transform="translate(-82.405 -10)" fill="#fff"/>
    </g>
  </g>
</svg>
